# xmcd
#
# Track frame offsets:
#	150
#	13961
#	34566
#	56909
#	73230
#	94157
#	115910
#	130991
#	157451
#	178794
#	198168
#	217364
#	234701
#	250123
#	270217
#	288011
#	312971
#	331753
#
# Disc length: 4662 seconds
#
# Revision: 4
# Processed by: cddbd v1.5.2PL0 Copyright (c) Steve Scherf et al.
# Submitted via: audiograbber 1.81.03
#
DISCID=12123412
DTITLE=Алла Пугачева - Птица певчая (коллекция)
DYEAR=2002
DGENRE=Pop
TTITLE0=Все могут короли
TTITLE1=Мэри
TTITLE2=Любовь похожая на сон
TTITLE3=Паромщик
TTITLE4=Старинные часы
TTITLE5=Куда уходит детство
TTITLE6=Волшебник-недоучка
TTITLE7=Миллион алых роз
TTITLE8=Настоящий полковник
TTITLE9=Позови меня с собой
TTITLE10=Птица певчая
TTITLE11=Надо же
TTITLE12=Не делайте мне больно, господа
TTITLE13=Айсберг
TTITLE14=Две звезды
TTITLE15=Большак
TTITLE16=Не отрекаются любя
TTITLE17=Сильная женщина
EXTD=(с) НААП 2002, (с) Студия «Союз» 2002.
EXTT0=
EXTT1=
EXTT2=
EXTT3=
EXTT4=
EXTT5=
EXTT6=
EXTT7=
EXTT8=
EXTT9=
EXTT10=
EXTT11=
EXTT12=
EXTT13=
EXTT14=
EXTT15=
EXTT16=
EXTT17=
PLAYORDER=
